<svg width="106" height="57" viewBox="0 0 106 57" fill="none" xmlns="http://www.w3.org/2000/svg">
<path d="M13.44 48.56L17.04 34.44H26.48L18.96 57H7.88L0.36 34.44H9.8L13.44 48.56Z" fill="black"/>
<path d="M69.8 57L66 51.92L63.16 57H53.4L60.96 45.12L53 34.44H62.92L66.72 39.56L69.6 34.44H79.36L71.56 46.04L79.72 57H69.8Z" fill="black"/>
<path d="M48 47.0049V0" stroke="black" stroke-width="2.73" stroke-linejoin="bevel"/>
<path d="M49.3231 40.7196C48.3077 38.6637 46.351 37.3803 43.7067 37.0713C43.2943 37 42.9558 37 42.5538 37C40.1846 37 37.6144 37.7605 35.2452 39.1985C30.7712 41.9436 28 46.4237 28 50.3096C28 51.3672 28.1375 52.3536 28.6135 53.2686C29.6288 55.3244 31.6596 56.6197 34.2933 56.9169C34.7058 57 35.0443 57 35.4462 57C37.8154 57 40.3221 56.2395 42.6913 54.7897C47.1548 52.0565 50 47.6477 50 43.7618C50 42.7041 49.799 41.6346 49.3231 40.7196Z" fill="black"/>
<path d="M65.76 24.32C63.7067 24.32 61.8533 23.8667 60.2 22.96C58.5733 22.0267 57.28 20.72 56.32 19.04C55.3867 17.3333 54.92 15.3467 54.92 13.08C54.92 10.8133 55.4 8.84 56.36 7.16C57.32 5.45333 58.6267 4.14667 60.28 3.24C61.9333 2.30667 63.7867 1.84 65.84 1.84C67.8933 1.84 69.7467 2.30667 71.4 3.24C73.08 4.14667 74.3867 5.45333 75.32 7.16C76.28 8.84 76.76 10.8133 76.76 13.08C76.76 15.32 76.28 17.2933 75.32 19C74.36 20.7067 73.04 22.0267 71.36 22.96C69.68 23.8667 67.8133 24.32 65.76 24.32ZM65.76 21.88C67.2 21.88 68.5333 21.56 69.76 20.92C70.9867 20.2533 71.9733 19.2667 72.72 17.96C73.4933 16.6267 73.88 15 73.88 13.08C73.88 11.16 73.5067 9.54667 72.76 8.24C72.0133 6.90667 71.0267 5.92 69.8 5.28C68.5733 4.61333 67.24 4.28 65.8 4.28C64.36 4.28 63.0267 4.61333 61.8 5.28C60.5733 5.92 59.5867 6.90667 58.84 8.24C58.12 9.54667 57.76 11.16 57.76 13.08C57.76 15 58.12 16.6267 58.84 17.96C59.5867 19.2667 60.56 20.2533 61.76 20.92C62.9867 21.56 64.32 21.88 65.76 21.88ZM91.0241 1.84C93.0774 1.84 94.8641 2.32 96.3841 3.28C97.9041 4.24 98.9974 5.45333 99.6641 6.92V2.16H102.464V24.56C102.464 26.56 102.024 28.3333 101.144 29.88C100.291 31.4267 99.0907 32.6133 97.5441 33.44C95.9974 34.2933 94.2374 34.72 92.2641 34.72C89.4641 34.72 87.1307 34.0533 85.2641 32.72C83.4241 31.3867 82.2774 29.5733 81.8241 27.28H84.5841C85.0641 28.8 85.9707 30.0133 87.3041 30.92C88.6641 31.8267 90.3174 32.28 92.2641 32.28C93.6774 32.28 94.9441 31.9733 96.0641 31.36C97.1841 30.7733 98.0641 29.8933 98.7041 28.72C99.3441 27.5467 99.6641 26.16 99.6641 24.56V19.16C98.9707 20.6533 97.8641 21.8933 96.3441 22.88C94.8507 23.84 93.0774 24.32 91.0241 24.32C89.0241 24.32 87.2241 23.8533 85.6241 22.92C84.0507 21.9867 82.8107 20.6667 81.9041 18.96C81.0241 17.2533 80.5841 15.28 80.5841 13.04C80.5841 10.8 81.0241 8.84 81.9041 7.16C82.8107 5.45333 84.0507 4.14667 85.6241 3.24C87.2241 2.30667 89.0241 1.84 91.0241 1.84ZM99.6641 13.08C99.6641 11.32 99.3041 9.77333 98.5841 8.44C97.8641 7.10667 96.8774 6.08 95.6241 5.36C94.3974 4.64 93.0374 4.28 91.5441 4.28C89.9974 4.28 88.6107 4.62667 87.3841 5.32C86.1574 6.01333 85.1841 7.02667 84.4641 8.36C83.7707 9.66667 83.4241 11.2267 83.4241 13.04C83.4241 14.8267 83.7707 16.4 84.4641 17.76C85.1841 19.0933 86.1574 20.12 87.3841 20.84C88.6107 21.5333 89.9974 21.88 91.5441 21.88C93.0374 21.88 94.3974 21.52 95.6241 20.8C96.8774 20.08 97.8641 19.0533 98.5841 17.72C99.3041 16.3867 99.6641 14.84 99.6641 13.08Z" fill="black"/>
</svg>
